<svg version="1.0" xmlns="http://www.w3.org/2000/svg" viewBox="0 0 365 365">
  <g>
    <path fill="#FFFFFF" stroke="#E23F3F" stroke-width="6" d="M155.6 1.6c-9.7 1.5-26.3 5.5-31.1 7.5-2.9 1.2-2.7 1.3 5.5 2.6 24.4 4 48.7 17.4 63.6 35.2 27.4 32.7 32.9 75.7 14.5 113.6-2.7 5.5-4.7 10.2-4.5 10.4.7.8 11.6-3 17.9-6.1 22.9-11.5 39.5-32.4 45.7-57.6 3-12.1 2.9-30.4-.1-41.7-8.4-31.4-32.2-55.3-62.8-63.1C196.1.3 192.6 0 179.6.1c-8.3.1-19.1.8-24 1.5z"/>
    <path fill="#E23F3F" d="M262 18.7c0 .4 2.1 3.5 4.5 6.7 5.8 7.7 13.8 24.1 16.4 33.6 6.1 22.6 4.8 45.1-3.9 67-7.5 18.9-22.6 37-40.4 48.5-7.9 5-22.7 11.6-29.3 13-1.8.4-3.5 1-3.8 1.5-.8 1.3 12.7 7.5 22 10.2 10.6 3 33.2 3.3 44 .4 27-7.1 50-27.1 59.5-51.7 4.7-12.3 6.2-20.1 6.2-32.9 0-19-5.2-35.9-15.6-50.4-10.1-14.1-32.8-32.9-51.6-42.7-8.3-4.3-8-4.2-8-3.2zM93.6 30.1c-10.2 2.5-23.1 8.6-31.8 15.1-8.5 6.3-21.6 20.9-30.7 34.3-6.9 10.1-13.6 22.3-12.8 23.2.3.2 3.6-1.8 7.3-4.5C39.2 88.4 54.8 82 71.7 79.5c12.2-1.9 17.3-1.9 29.3 0 34 5.1 62.5 25.6 78 55.7 2.7 5.4 5.9 13.2 7.1 17.3 1.2 4.1 2.5 7.5 2.9 7.5.4 0 2.4-3.6 4.4-8.1 14.2-31.1 9.7-66.8-12-93.4-10.3-12.6-28.2-23.8-45.1-28.1-12.4-3.1-30.7-3.3-42.7-.3z"/>
    <path fill="#FFFFFF" stroke="#E23F3F" stroke-width="6" d="M77.5 96.1c-14.6 1.2-28.3 6.2-41 15C19.3 123 7 140.6 1.9 160.9c-1.9 7.6-2.1 10.4-1.6 28 .5 20.6 1.6 28.6 6.4 44.9 2.8 9.9 3.6 10.1 4.7 1.2 3-24.1 18-50.2 38.1-65.9 32.3-25.4 73.1-29.9 110.2-12.1 5.9 2.8 10.8 4.8 11 4.6.8-.8-4-13.3-7.8-20.6-11.7-21.8-32.7-37.8-56.3-42.9-11.3-2.5-17.6-2.9-29.1-2zM353.6 128.7c-1 8.4-5.2 22.5-9.1 30.7-13.6 28.4-37.8 48.4-68.9 56.8-7 2-10.5 2.2-26.1 2.2-16.6 0-18.7-.2-27-2.7-4.9-1.5-13.4-4.9-18.7-7.6-5.9-3-9.8-4.4-9.8-3.7 0 2.6 4.1 13.1 8.1 20.5 11 20.8 30.6 36 54.9 42.7 9.2 2.6 32.7 2.6 42.5 0 27-7 50.1-27.2 59.9-52.4 4.9-12.6 5.9-20 5.3-39.1-.3-9.7-1.3-21.2-2.2-25.6-2.2-11.3-6.7-27.5-7.6-27.5-.3 0-1 2.6-1.3 5.7z"/>
    <path fill="#E23F3F" d="M103.7 164.1c-31.5 3.6-59.1 25.1-70.8 55.3-10 25.8-6.4 57.4 9.2 80.3 7.3 10.7 23 25.2 38.2 35.2 9 6 22.7 13.5 22.7 12.5 0-.4-1.7-3-3.8-5.8-8.3-11-14.5-23.9-18.4-38.1-1.8-6.8-2.2-10.6-2.2-25 0-15.6.3-17.8 2.8-26.5 10.3-35.8 35.8-62.1 70.6-73l8.5-2.7-7-3.5c-9.3-4.7-18.9-7.5-30-8.8-9.9-1.1-10-1.1-19.8.1z"/>
    <path fill="#FFFFFF" stroke="#E23F3F" stroke-width="6" d="M155 195.9c-21.3 6.8-40.8 23.7-50.5 43.6-7.1 14.6-8.9 22.6-8.9 39-.1 20.1 3.7 33.2 14 48.7 11.8 17.7 30.4 30.8 51.4 36.3 5.5 1.4 9.8 1.6 27.5 1.2 21.7-.6 29.9-1.7 46.4-6.7 8.3-2.4 8.1-3.3-.9-4.4-21.3-2.7-40.2-12.6-57.5-30-14.9-15-22.3-27.7-27.7-47.7-2-7.3-2.3-10.7-2.2-25.4 0-21.3 2-29.8 11.3-48 4.6-9 4.4-8.5 3.4-8.4-.4 0-3.3.8-6.3 1.8z"/>
    <path fill="#E23F3F" d="M172 212c-1.6 3.2-4.2 9.9-5.7 14.7-2.3 7.8-2.6 10.4-2.7 23.8 0 17.4 1.7 25.1 8.4 38.8 10.7 21.9 29.8 37.8 54.6 45.3 7.9 2.4 10.5 2.7 23.4 2.7 11.6 0 16.1-.4 22.5-2.1 10.4-2.8 24.3-9.9 32.4-16.5 8.8-7.1 20.7-20.7 29.2-33.4 6.8-10.3 13.4-22.1 12.7-22.9-.2-.2-3.5 1.9-7.4 4.7-8.7 6.4-22.3 13-33.9 16.5-8.2 2.5-10.5 2.7-26.5 2.8-18.9.1-25.5-1.1-39.9-6.9-29.7-12.1-53.1-38.4-61.3-68.8-.6-2.6-1.6-4.7-2-4.7-.4 0-2.1 2.7-3.8 6z"/>
  </g>
</svg>
